Coordinates
version=1
nRows=7
nColumns=40
inDegrees=yes

Units are S.I. units (second, meters, Newtons, ...)
Angles are in degrees.

endheader
time	pelvis_tilt	pelvis_list	pelvis_rotation	pelvis_tx	pelvis_ty	pelvis_tz	hip_flexion_r	hip_adduction_r	hip_rotation_r	knee_angle_r	knee_angle_r_beta	ankle_angle_r	subtalar_angle_r	mtp_angle_r	hip_flexion_l	hip_adduction_l	hip_rotation_l	knee_angle_l	knee_angle_l_beta	ankle_angle_l	subtalar_angle_l	mtp_angle_l	lumbar_extension	lumbar_bending	lumbar_rotation	arm_flex_r	arm_add_r	arm_rot_r	elbow_flex_r	pro_sup_r	wrist_flex_r	wrist_dev_r	arm_flex_l	arm_add_l	arm_rot_l	elbow_flex_l	pro_sup_l	wrist_flex_l	wrist_dev_l
     46.58442857	     -0.48203162	     -3.98624132	     -1.81843660	      1.14322733	      0.90856496	      0.40039671	     26.84837073	     -7.97447319	      0.56466723	     70.86909722	     70.86909722	     10.50940685	    -18.98429977	     11.32332885	     18.58814020	     -1.33698916	     -2.63103164	     37.95419358	     37.95419358	     23.38181811	    -18.71103312	     10.23593976	    -11.32708623	      7.73833445	      1.71427943	     -0.42542894	    -11.33432649	    -15.46915911	     21.81920695	     47.02031401	      0.00000000	      0.00000000	     29.75711104	    -15.74220794	     11.47586061	     46.86041117	     46.18939106	      0.00000000	      0.00000000
     46.60635714	     -0.57633917	     -4.00338015	     -2.78749381	      1.14183372	      0.90969670	      0.40105083	     27.61580480	     -7.76015231	      0.53830856	     68.34404470	     68.34404470	     11.09447582	    -18.92388063	     10.73949767	     18.04908942	     -1.51622837	     -3.36022310	     37.40448968	     37.40448968	     23.75077284	    -18.72905746	     11.05596634	    -11.48679761	      7.85848152	      2.20671130	     -3.97103860	    -11.26522204	    -15.43524492	     21.05321771	     47.02968773	      0.00000000	      0.00000000	     30.22759006	    -15.71475624	      8.58690118	     51.29558304	     46.50975064	      0.00000000	      0.00000000
     46.62828571	     -0.76951753	     -4.09522074	     -3.77175728	      1.14016390	      0.91174350	      0.40234325	     28.14946659	     -7.28520694	      0.40345152	     64.82218719	     64.82218719	     11.71043990	    -18.73418410	     10.41334999	     17.37166213	     -1.82239099	     -4.14234242	     36.34382974	     36.34382974	     23.65351853	    -18.73308478	     11.29931948	    -11.41825275	      8.07329998	      1.92981588	     -6.55237201	    -11.19110453	    -15.44647919	     20.16623049	     47.04749550	      0.00000000	      0.00000000	     31.39968620	    -16.57464173	      7.82837520	     52.32053109	     46.59659672	      0.00000000	      0.00000000
     46.65021429	     -1.10967827	     -4.15976348	     -4.88829496	      1.13811764	      0.91415562	      0.40423192	     28.39759158	     -6.83962680	      0.07517267	     60.11387215	     60.11387215	     10.37069862	    -18.55558680	      4.08637475	     16.71239006	     -2.17934287	     -5.14562749	     34.99809524	     34.99809524	     23.18042831	    -18.71560947	     10.83164103	    -11.41682368	      8.12466833	      1.57292749	     -9.12168971	    -11.26164925	    -14.80945850	     20.47674161	     46.98533461	      0.00000000	      0.00000000	     31.78831654	    -17.28598190	      4.62086980	     55.62702814	     46.90476334	      0.00000000	      0.00000000
     46.67214286	     -1.52936283	     -4.26355649	     -6.01139619	      1.13580489	      0.91693992	      0.40673149	     28.42765966	     -6.12337465	     -0.18659708	     54.76716034	     54.76716034	      9.45307332	    -17.99902247	     -0.13986152	     16.01008991	     -2.60692815	     -6.17245622	     33.39404550	     33.39404550	     22.53124784	    -18.65377547	     10.28551933	    -11.32943399	      8.21716150	      1.39891217	    -11.53245875	    -11.32687700	    -14.53154381	     21.16949782	     46.92652404	      0.00000000	      0.00000000	     32.77550687	    -18.29621582	      3.45602429	     57.62978985	     47.02645759	      0.00000000	      0.00000000
     46.69407143	     -2.14450777	     -4.39804629	     -7.13198590	      1.13318329	      0.91960595	      0.40969266	     28.48634717	     -5.21928561	     -0.38173114	     49.21463492	     49.21463492	      9.73418697	    -16.21793217	     -0.11739620	     15.53879254	     -3.09251613	     -7.15319191	     31.82808206	     31.82808206	     22.15609914	    -18.50651427	     10.57592646	    -11.00289607	      8.36842359	      1.25199162	    -13.21341369	    -11.38993489	    -14.57135142	     20.84543254	     46.92923940	      0.00000000	      0.00000000	     34.16388215	    -19.31654675	      2.97084287	     58.40263397	     47.08330385	      0.00000000	      0.00000000
     46.71600000	     -2.52559326	     -4.44875082	     -8.27382512	      1.13060219	      0.92256362	      0.41302153	     27.96153751	     -4.51403674	     -0.75833092	     43.24231656	     43.24231656	      9.66824639	    -13.32943361	     -0.84039592	     14.67320416	     -3.46647476	     -8.24896575	     30.00959178	     30.00959178	     21.52722653	    -18.35302740	     10.46875232	    -11.10048495	      8.28834684	      1.37126231	    -14.81411903	    -11.38333961	    -14.67154929	     21.23934969	     46.90370465	      0.00000000	      0.00000000	     35.68484649	    -20.27604185	      2.23363133	     59.85521942	     47.17019392	      0.00000000	      0.00000000
